<mxfile host="app.diagrams.net" agent="Mozilla/5.0 (Windows NT 10.0; Win64; x64) AppleWebKit/537.36 (KHTML, like Gecko) Chrome/140.0.0.0 Safari/537.36" version="28.2.3">
  <diagram name="หน้า-1" id="5BmvicElwH-TUGw0CWuh">
    <mxGraphModel dx="1665" dy="777" grid="1" gridSize="10" guides="1" tooltips="1" connect="1" arrows="1" fold="1" page="1" pageScale="1" pageWidth="827" pageHeight="1169" math="0" shadow="0">
      <root>
        <mxCell id="0" />
        <mxCell id="1" parent="0" />
        <mxCell id="h2AYWT5rCXcbNZria6es-5" value="" style="edgeStyle=orthogonalEdgeStyle;rounded=0;orthogonalLoop=1;jettySize=auto;html=1;" edge="1" parent="1" source="h2AYWT5rCXcbNZria6es-1" target="h2AYWT5rCXcbNZria6es-2">
          <mxGeometry relative="1" as="geometry" />
        </mxCell>
        <mxCell id="h2AYWT5rCXcbNZria6es-1" value="Start" style="ellipse;whiteSpace=wrap;html=1;" vertex="1" parent="1">
          <mxGeometry x="100" y="40" width="120" height="40" as="geometry" />
        </mxCell>
        <mxCell id="h2AYWT5rCXcbNZria6es-6" value="" style="edgeStyle=orthogonalEdgeStyle;rounded=0;orthogonalLoop=1;jettySize=auto;html=1;" edge="1" parent="1" source="h2AYWT5rCXcbNZria6es-2" target="h2AYWT5rCXcbNZria6es-3">
          <mxGeometry relative="1" as="geometry" />
        </mxCell>
        <mxCell id="h2AYWT5rCXcbNZria6es-2" value="number = 0" style="rounded=0;whiteSpace=wrap;html=1;" vertex="1" parent="1">
          <mxGeometry x="100" y="120" width="120" height="40" as="geometry" />
        </mxCell>
        <mxCell id="h2AYWT5rCXcbNZria6es-7" value="" style="edgeStyle=orthogonalEdgeStyle;rounded=0;orthogonalLoop=1;jettySize=auto;html=1;" edge="1" parent="1" source="h2AYWT5rCXcbNZria6es-3" target="h2AYWT5rCXcbNZria6es-4">
          <mxGeometry relative="1" as="geometry" />
        </mxCell>
        <mxCell id="h2AYWT5rCXcbNZria6es-3" value="show &quot;Enter Number &quot;" style="shape=parallelogram;perimeter=parallelogramPerimeter;whiteSpace=wrap;html=1;fixedSize=1;" vertex="1" parent="1">
          <mxGeometry x="75" y="200" width="170" height="40" as="geometry" />
        </mxCell>
        <mxCell id="h2AYWT5rCXcbNZria6es-9" value="" style="edgeStyle=orthogonalEdgeStyle;rounded=0;orthogonalLoop=1;jettySize=auto;html=1;" edge="1" parent="1" source="h2AYWT5rCXcbNZria6es-4" target="h2AYWT5rCXcbNZria6es-8">
          <mxGeometry relative="1" as="geometry" />
        </mxCell>
        <mxCell id="h2AYWT5rCXcbNZria6es-4" value="checkArmstrongnum" style="shape=process;whiteSpace=wrap;html=1;backgroundOutline=1;" vertex="1" parent="1">
          <mxGeometry x="60" y="280" width="200" height="40" as="geometry" />
        </mxCell>
        <mxCell id="h2AYWT5rCXcbNZria6es-8" value="END" style="ellipse;whiteSpace=wrap;html=1;" vertex="1" parent="1">
          <mxGeometry x="100" y="360" width="120" height="40" as="geometry" />
        </mxCell>
        <mxCell id="h2AYWT5rCXcbNZria6es-13" value="" style="edgeStyle=orthogonalEdgeStyle;rounded=0;orthogonalLoop=1;jettySize=auto;html=1;" edge="1" parent="1" source="h2AYWT5rCXcbNZria6es-10" target="h2AYWT5rCXcbNZria6es-11">
          <mxGeometry relative="1" as="geometry" />
        </mxCell>
        <mxCell id="h2AYWT5rCXcbNZria6es-10" value="Start" style="ellipse;whiteSpace=wrap;html=1;" vertex="1" parent="1">
          <mxGeometry x="500" y="40" width="120" height="40" as="geometry" />
        </mxCell>
        <mxCell id="h2AYWT5rCXcbNZria6es-14" value="" style="edgeStyle=orthogonalEdgeStyle;rounded=0;orthogonalLoop=1;jettySize=auto;html=1;" edge="1" parent="1" source="h2AYWT5rCXcbNZria6es-11" target="h2AYWT5rCXcbNZria6es-12">
          <mxGeometry relative="1" as="geometry" />
        </mxCell>
        <mxCell id="h2AYWT5rCXcbNZria6es-11" value="digit = 0" style="rounded=0;whiteSpace=wrap;html=1;" vertex="1" parent="1">
          <mxGeometry x="500" y="120" width="120" height="40" as="geometry" />
        </mxCell>
        <mxCell id="h2AYWT5rCXcbNZria6es-18" value="" style="edgeStyle=orthogonalEdgeStyle;rounded=0;orthogonalLoop=1;jettySize=auto;html=1;" edge="1" parent="1" source="h2AYWT5rCXcbNZria6es-12" target="h2AYWT5rCXcbNZria6es-15">
          <mxGeometry relative="1" as="geometry" />
        </mxCell>
        <mxCell id="h2AYWT5rCXcbNZria6es-12" value="sum = 0;" style="rounded=0;whiteSpace=wrap;html=1;" vertex="1" parent="1">
          <mxGeometry x="500" y="200" width="120" height="40" as="geometry" />
        </mxCell>
        <mxCell id="h2AYWT5rCXcbNZria6es-19" value="" style="edgeStyle=orthogonalEdgeStyle;rounded=0;orthogonalLoop=1;jettySize=auto;html=1;" edge="1" parent="1" source="h2AYWT5rCXcbNZria6es-15" target="h2AYWT5rCXcbNZria6es-16">
          <mxGeometry relative="1" as="geometry" />
        </mxCell>
        <mxCell id="h2AYWT5rCXcbNZria6es-15" value="i = number" style="rounded=0;whiteSpace=wrap;html=1;" vertex="1" parent="1">
          <mxGeometry x="500" y="280" width="120" height="40" as="geometry" />
        </mxCell>
        <mxCell id="h2AYWT5rCXcbNZria6es-24" value="" style="edgeStyle=orthogonalEdgeStyle;rounded=0;orthogonalLoop=1;jettySize=auto;html=1;" edge="1" parent="1" source="h2AYWT5rCXcbNZria6es-16" target="h2AYWT5rCXcbNZria6es-20">
          <mxGeometry relative="1" as="geometry" />
        </mxCell>
        <mxCell id="h2AYWT5rCXcbNZria6es-26" style="edgeStyle=orthogonalEdgeStyle;rounded=0;orthogonalLoop=1;jettySize=auto;html=1;entryX=0.5;entryY=0;entryDx=0;entryDy=0;" edge="1" parent="1" source="h2AYWT5rCXcbNZria6es-16" target="h2AYWT5rCXcbNZria6es-27">
          <mxGeometry relative="1" as="geometry">
            <mxPoint x="760" y="580" as="targetPoint" />
            <Array as="points">
              <mxPoint x="720" y="400" />
              <mxPoint x="720" y="640" />
              <mxPoint x="560" y="640" />
            </Array>
          </mxGeometry>
        </mxCell>
        <mxCell id="h2AYWT5rCXcbNZria6es-16" value="i &amp;gt; 0 ?" style="rhombus;whiteSpace=wrap;html=1;" vertex="1" parent="1">
          <mxGeometry x="505" y="360" width="110" height="80" as="geometry" />
        </mxCell>
        <mxCell id="h2AYWT5rCXcbNZria6es-25" value="" style="edgeStyle=orthogonalEdgeStyle;rounded=0;orthogonalLoop=1;jettySize=auto;html=1;" edge="1" parent="1" source="h2AYWT5rCXcbNZria6es-20" target="h2AYWT5rCXcbNZria6es-21">
          <mxGeometry relative="1" as="geometry" />
        </mxCell>
        <mxCell id="h2AYWT5rCXcbNZria6es-20" value="d = i mod 10" style="rounded=0;whiteSpace=wrap;html=1;" vertex="1" parent="1">
          <mxGeometry x="500" y="480" width="120" height="40" as="geometry" />
        </mxCell>
        <mxCell id="h2AYWT5rCXcbNZria6es-21" value="numexponent = 1" style="rounded=0;whiteSpace=wrap;html=1;" vertex="1" parent="1">
          <mxGeometry x="500" y="560" width="120" height="40" as="geometry" />
        </mxCell>
        <mxCell id="h2AYWT5rCXcbNZria6es-35" style="edgeStyle=orthogonalEdgeStyle;rounded=0;orthogonalLoop=1;jettySize=auto;html=1;entryX=0.5;entryY=0;entryDx=0;entryDy=0;" edge="1" parent="1" source="h2AYWT5rCXcbNZria6es-27" target="h2AYWT5rCXcbNZria6es-34">
          <mxGeometry relative="1" as="geometry" />
        </mxCell>
        <mxCell id="h2AYWT5rCXcbNZria6es-27" value="j = 0" style="rounded=0;whiteSpace=wrap;html=1;" vertex="1" parent="1">
          <mxGeometry x="500" y="680" width="120" height="40" as="geometry" />
        </mxCell>
        <mxCell id="h2AYWT5rCXcbNZria6es-31" value="" style="edgeStyle=orthogonalEdgeStyle;rounded=0;orthogonalLoop=1;jettySize=auto;html=1;" edge="1" parent="1" source="h2AYWT5rCXcbNZria6es-28" target="h2AYWT5rCXcbNZria6es-30">
          <mxGeometry relative="1" as="geometry" />
        </mxCell>
        <mxCell id="h2AYWT5rCXcbNZria6es-39" style="edgeStyle=orthogonalEdgeStyle;rounded=0;orthogonalLoop=1;jettySize=auto;html=1;entryX=0.5;entryY=0;entryDx=0;entryDy=0;" edge="1" parent="1" source="h2AYWT5rCXcbNZria6es-28" target="h2AYWT5rCXcbNZria6es-40">
          <mxGeometry relative="1" as="geometry">
            <mxPoint x="720" y="1120" as="targetPoint" />
            <Array as="points">
              <mxPoint x="720" y="840" />
              <mxPoint x="720" y="1120" />
              <mxPoint x="560" y="1120" />
            </Array>
          </mxGeometry>
        </mxCell>
        <mxCell id="h2AYWT5rCXcbNZria6es-28" value="j &amp;lt; digit" style="rhombus;whiteSpace=wrap;html=1;" vertex="1" parent="1">
          <mxGeometry x="505" y="800" width="110" height="80" as="geometry" />
        </mxCell>
        <mxCell id="h2AYWT5rCXcbNZria6es-33" value="" style="edgeStyle=orthogonalEdgeStyle;rounded=0;orthogonalLoop=1;jettySize=auto;html=1;" edge="1" parent="1" source="h2AYWT5rCXcbNZria6es-30" target="h2AYWT5rCXcbNZria6es-32">
          <mxGeometry relative="1" as="geometry" />
        </mxCell>
        <mxCell id="h2AYWT5rCXcbNZria6es-30" value="numexponent * d" style="rounded=0;whiteSpace=wrap;html=1;" vertex="1" parent="1">
          <mxGeometry x="500" y="920" width="120" height="40" as="geometry" />
        </mxCell>
        <mxCell id="h2AYWT5rCXcbNZria6es-38" style="edgeStyle=orthogonalEdgeStyle;rounded=0;orthogonalLoop=1;jettySize=auto;html=1;entryX=0;entryY=0.5;entryDx=0;entryDy=0;" edge="1" parent="1" source="h2AYWT5rCXcbNZria6es-32" target="h2AYWT5rCXcbNZria6es-34">
          <mxGeometry relative="1" as="geometry">
            <Array as="points">
              <mxPoint x="560" y="1080" />
              <mxPoint x="440" y="1080" />
              <mxPoint x="440" y="765" />
            </Array>
          </mxGeometry>
        </mxCell>
        <mxCell id="h2AYWT5rCXcbNZria6es-32" value="j + 1" style="rounded=0;whiteSpace=wrap;html=1;" vertex="1" parent="1">
          <mxGeometry x="500" y="1000" width="120" height="40" as="geometry" />
        </mxCell>
        <mxCell id="h2AYWT5rCXcbNZria6es-37" style="edgeStyle=orthogonalEdgeStyle;rounded=0;orthogonalLoop=1;jettySize=auto;html=1;entryX=0.5;entryY=0;entryDx=0;entryDy=0;" edge="1" parent="1" source="h2AYWT5rCXcbNZria6es-34" target="h2AYWT5rCXcbNZria6es-28">
          <mxGeometry relative="1" as="geometry" />
        </mxCell>
        <mxCell id="h2AYWT5rCXcbNZria6es-34" value="" style="ellipse;whiteSpace=wrap;html=1;aspect=fixed;" vertex="1" parent="1">
          <mxGeometry x="555" y="760" width="10" height="10" as="geometry" />
        </mxCell>
        <mxCell id="h2AYWT5rCXcbNZria6es-42" value="" style="edgeStyle=orthogonalEdgeStyle;rounded=0;orthogonalLoop=1;jettySize=auto;html=1;" edge="1" parent="1" source="h2AYWT5rCXcbNZria6es-40">
          <mxGeometry relative="1" as="geometry">
            <mxPoint x="560" y="1240" as="targetPoint" />
          </mxGeometry>
        </mxCell>
        <mxCell id="h2AYWT5rCXcbNZria6es-40" value="sum + numexponent" style="rounded=0;whiteSpace=wrap;html=1;" vertex="1" parent="1">
          <mxGeometry x="485" y="1160" width="150" height="40" as="geometry" />
        </mxCell>
        <mxCell id="h2AYWT5rCXcbNZria6es-49" value="" style="edgeStyle=orthogonalEdgeStyle;rounded=0;orthogonalLoop=1;jettySize=auto;html=1;" edge="1" parent="1" source="h2AYWT5rCXcbNZria6es-43" target="h2AYWT5rCXcbNZria6es-44">
          <mxGeometry relative="1" as="geometry" />
        </mxCell>
        <mxCell id="h2AYWT5rCXcbNZria6es-43" value="i / 10" style="rounded=0;whiteSpace=wrap;html=1;" vertex="1" parent="1">
          <mxGeometry x="500" y="1240" width="120" height="40" as="geometry" />
        </mxCell>
        <mxCell id="h2AYWT5rCXcbNZria6es-48" value="" style="edgeStyle=orthogonalEdgeStyle;rounded=0;orthogonalLoop=1;jettySize=auto;html=1;" edge="1" parent="1" source="h2AYWT5rCXcbNZria6es-44" target="h2AYWT5rCXcbNZria6es-45">
          <mxGeometry relative="1" as="geometry" />
        </mxCell>
        <mxCell id="h2AYWT5rCXcbNZria6es-50" style="edgeStyle=orthogonalEdgeStyle;rounded=0;orthogonalLoop=1;jettySize=auto;html=1;entryX=0.5;entryY=0;entryDx=0;entryDy=0;" edge="1" parent="1" source="h2AYWT5rCXcbNZria6es-44" target="h2AYWT5rCXcbNZria6es-47">
          <mxGeometry relative="1" as="geometry" />
        </mxCell>
        <mxCell id="h2AYWT5rCXcbNZria6es-44" value="sum == number" style="rhombus;whiteSpace=wrap;html=1;" vertex="1" parent="1">
          <mxGeometry x="505" y="1320" width="110" height="80" as="geometry" />
        </mxCell>
        <mxCell id="h2AYWT5rCXcbNZria6es-53" style="edgeStyle=orthogonalEdgeStyle;rounded=0;orthogonalLoop=1;jettySize=auto;html=1;entryX=0.5;entryY=0;entryDx=0;entryDy=0;" edge="1" parent="1" source="h2AYWT5rCXcbNZria6es-45" target="h2AYWT5rCXcbNZria6es-51">
          <mxGeometry relative="1" as="geometry" />
        </mxCell>
        <mxCell id="h2AYWT5rCXcbNZria6es-45" value="show &quot;Pass&quot;" style="rounded=0;whiteSpace=wrap;html=1;" vertex="1" parent="1">
          <mxGeometry x="500" y="1440" width="120" height="40" as="geometry" />
        </mxCell>
        <mxCell id="h2AYWT5rCXcbNZria6es-46" value="END" style="ellipse;whiteSpace=wrap;html=1;" vertex="1" parent="1">
          <mxGeometry x="500" y="1560" width="120" height="40" as="geometry" />
        </mxCell>
        <mxCell id="h2AYWT5rCXcbNZria6es-54" style="edgeStyle=orthogonalEdgeStyle;rounded=0;orthogonalLoop=1;jettySize=auto;html=1;entryX=1;entryY=0.5;entryDx=0;entryDy=0;" edge="1" parent="1" source="h2AYWT5rCXcbNZria6es-47" target="h2AYWT5rCXcbNZria6es-51">
          <mxGeometry relative="1" as="geometry">
            <Array as="points">
              <mxPoint x="740" y="1515" />
            </Array>
          </mxGeometry>
        </mxCell>
        <mxCell id="h2AYWT5rCXcbNZria6es-47" value="show &quot;Not Pass&quot;" style="rounded=0;whiteSpace=wrap;html=1;" vertex="1" parent="1">
          <mxGeometry x="680" y="1440" width="120" height="40" as="geometry" />
        </mxCell>
        <mxCell id="h2AYWT5rCXcbNZria6es-55" value="" style="edgeStyle=orthogonalEdgeStyle;rounded=0;orthogonalLoop=1;jettySize=auto;html=1;" edge="1" parent="1" source="h2AYWT5rCXcbNZria6es-51" target="h2AYWT5rCXcbNZria6es-46">
          <mxGeometry relative="1" as="geometry" />
        </mxCell>
        <mxCell id="h2AYWT5rCXcbNZria6es-51" value="" style="ellipse;whiteSpace=wrap;html=1;aspect=fixed;" vertex="1" parent="1">
          <mxGeometry x="555" y="1510" width="10" height="10" as="geometry" />
        </mxCell>
        <mxCell id="h2AYWT5rCXcbNZria6es-56" value="TRUE" style="text;html=1;align=center;verticalAlign=middle;whiteSpace=wrap;rounded=0;" vertex="1" parent="1">
          <mxGeometry x="560" y="440" width="60" height="30" as="geometry" />
        </mxCell>
        <mxCell id="h2AYWT5rCXcbNZria6es-57" value="FALSE" style="text;html=1;align=center;verticalAlign=middle;whiteSpace=wrap;rounded=0;" vertex="1" parent="1">
          <mxGeometry x="615" y="370" width="60" height="30" as="geometry" />
        </mxCell>
        <mxCell id="h2AYWT5rCXcbNZria6es-58" value="TRUE" style="text;html=1;align=center;verticalAlign=middle;whiteSpace=wrap;rounded=0;" vertex="1" parent="1">
          <mxGeometry x="560" y="880" width="60" height="30" as="geometry" />
        </mxCell>
        <mxCell id="h2AYWT5rCXcbNZria6es-59" value="FALSE" style="text;html=1;align=center;verticalAlign=middle;whiteSpace=wrap;rounded=0;" vertex="1" parent="1">
          <mxGeometry x="615" y="810" width="60" height="30" as="geometry" />
        </mxCell>
        <mxCell id="h2AYWT5rCXcbNZria6es-60" value="TRUE" style="text;html=1;align=center;verticalAlign=middle;whiteSpace=wrap;rounded=0;" vertex="1" parent="1">
          <mxGeometry x="560" y="1400" width="60" height="30" as="geometry" />
        </mxCell>
        <mxCell id="h2AYWT5rCXcbNZria6es-61" value="FALSE" style="text;html=1;align=center;verticalAlign=middle;whiteSpace=wrap;rounded=0;" vertex="1" parent="1">
          <mxGeometry x="615" y="1330" width="60" height="30" as="geometry" />
        </mxCell>
      </root>
    </mxGraphModel>
  </diagram>
</mxfile>
